<svg xmlns="http://www.w3.org/2000/svg" width="1219.16" height="756.719" viewBox="0 0 1219.16 756.719">
  <defs>
    <style>
      .cls-1 {
        fill: #fff;
        fill-rule: evenodd;
      }
    </style>
  </defs>
  <path id="Shape_214_copy" data-name="Shape 214 copy" class="cls-1" d="M287.877-1105.85c514.334,0,931.283,416.948,931.283,931.281S802.211,756.715,287.877,756.715s-931.283-416.95-931.283-931.284S-226.456-1105.85,287.877-1105.85Zm0,2.25c513.092,0,929.033,415.94,929.033,929.031S800.969,754.466,287.877,754.466-641.157,338.523-641.157-174.569-225.214-1103.6,287.877-1103.6ZM819.766,536.931a40.488,40.488,0,1,1-40.488,40.488A40.488,40.488,0,0,1,819.766,536.931Zm214-200.094a49.582,49.582,0,1,1-49.585,49.581A49.582,49.582,0,0,1,1033.77,336.837ZM61.9-669.595C431.71-669.595,731.5-369.8,731.5.011S431.71,669.618,61.9,669.618-607.71,369.825-607.71.011-307.917-669.595,61.9-669.595Zm0,2C430.606-667.6,729.5-368.7,729.5.011S430.606,667.618,61.9,667.618-605.711,368.72-605.711.011-306.812-667.6,61.9-667.6ZM390.766,536.931a40.488,40.488,0,1,1-40.488,40.488A40.488,40.488,0,0,1,390.766,536.931Zm214-191a40.488,40.488,0,1,1-40.488,40.488A40.488,40.488,0,0,1,604.766,345.931Z"/>
</svg>
