<svg xmlns="http://www.w3.org/2000/svg" viewBox="0 0 59.25 76.88">
  <path class="cls-1" d="M1196.46,3236.1c-1.4,4.11-2.68,7.83-4.04,11.79a42.349,42.349,0,0,1,4.96.84,2.685,2.685,0,0,1,1.73,1.63c0.07,1.26-1.08,1.25-2.04,1.06a34.185,34.185,0,0,0-14.03-.02c-0.53.11-1.23-.54-1.86-0.84,0.44-.61.77-1.56,1.36-1.75a34.664,34.664,0,0,1,4.69-.9c-0.83-1.82-1.6-3.49-2.39-5.2-7.21,5.28-15.4.91-19.07-5.47-1.91-3.32-3.29-6.95-4.9-10.45-0.2-.41-0.39-0.83-0.62-1.22-1.44-2.5-1.21-2.9,1.73-3.43a32.82,32.82,0,0,1,16.63.93c6.41,2.2,9.97,7.18,9.45,13.27a0.983,0.983,0,0,1-.02.39c-2.28,3.31-.07,6,1.21,8.81,0.19,0.41.37,0.82,0.66,1.49,0.44-1.48.79-2.76,1.2-4.02a33.44,33.44,0,0,1,1.82-5.15,7.071,7.071,0,0,0,.36-6.77c-1.75-4.12-.24-8.11,2.72-11.37,4.08-4.49,9.5-6.31,15.27-7.25a37.121,37.121,0,0,1,5.48-.4c1.84-.03,2.1.53,1.68,2.29-1,4.17-1.69,8.43-2.89,12.55-1.51,5.12-4.49,9.14-9.89,10.79C1202.55,3238.64,1199.61,3238.13,1196.46,3236.1Zm-13.31,3.99a31.094,31.094,0,0,0-3.64-3.91,82,82,0,0,0-7.65-5.1c-0.96-.59-1.54-1.25-0.93-2.12a2.675,2.675,0,0,1,2.14-.36,5.121,5.121,0,0,1,2.09,1.03c3.33,2.47,6.63,4.99,9.91,7.47a1.985,1.985,0,0,0,.19-0.62c0.49-4.3-1.42-7.73-5.61-9.83-5.23-2.61-10.74-2.9-16.48-1.86a3.9,3.9,0,0,0,.15.82c1.36,3.04,2.64,6.12,4.15,9.09a14.286,14.286,0,0,0,5.99,6.32C1177.08,3242.97,1180.25,3242.76,1183.15,3240.09Zm13.19-8.93a36.862,36.862,0,0,1,3.09-4q3.735-3.735,7.78-7.15c0.47-.4,1.57-0.04,2.38-0.04-0.29.77-.55,1.55-0.88,2.3a1.839,1.839,0,0,1-.64.43,36.615,36.615,0,0,0-10.08,11.43,24.342,24.342,0,0,0,4.48,1.16c3.53,0.2,6.05-1.76,8.05-4.43,3.52-4.72,3.47-10.48,4.76-16.1-1.3.16-2.39,0.26-3.47,0.44-4.62.77-8.98,2.13-12.61,5.29C1196.26,3223.04,1194.23,3227.41,1196.34,3231.16Zm-33.06,15.04c0-1.31-.04-2.63.01-3.94,0.04-1.06.34-2.02,1.69-1.89s1.17,1.13,1.09,2.08c-0.43,5.76.16,11.27,3,16.51,6.89,12.68,25.28,16.17,36.31,6.89,7.65-6.44,10.08-14.63,8.79-24.22-0.23-1.74-.72-3.45-0.84-5.19-0.04-.62.66-1.29,1.03-1.93,0.54,0.44,1.45.79,1.57,1.33,2.16,9.32,2.34,18.45-3.59,26.65a26.346,26.346,0,0,1-21.1,11.4,27.028,27.028,0,0,1-27.89-23.18,28.267,28.267,0,0,1-.04-4.51h-0.03Zm41.04-34.17a3.829,3.829,0,0,1-1.55.71,2.816,2.816,0,0,1-1.78-.82c-2.2-2.42-4.28-4.94-6.45-7.39-0.91-1.02-2.04-1.87-2.88-2.95-1.01-1.31-1.86-1.12-2.87-.09-4.99,5.07-9.84,10.26-13.49,16.43a2.609,2.609,0,0,1-.64.97,19.18,19.18,0,0,1-2.04.99c-0.12-.81-0.62-1.85-0.29-2.38a64.041,64.041,0,0,1,5.33-7.71c3.2-3.78,6.65-7.35,10.04-10.96,2.16-2.29,2.71-2.36,4.92-.09,3.51,3.6,6.87,7.35,10.27,11.06a9.575,9.575,0,0,1,1.01,1.62C1204.04,3211.63,1204.18,3211.83,1204.32,3212.03Zm5.08,38.26c-1.35,5.87-4.07,10.22-8.94,13.02-0.48.27-1.36-.13-2.06-0.23,0.24-.71.25-1.77,0.75-2.09a17.2,17.2,0,0,0,7.44-10.62,2.036,2.036,0,0,1,1.52-1.2C1208.61,3249.18,1209.09,3250,1209.4,3250.29Zm0.66-6.52c-0.92,1.01-1.42,2.06-2.05,2.15-1.5.19-1.47-1.1-1.45-2.18,0.02-.96-0.18-2.28,1.28-2.07C1208.53,3241.77,1209.09,3242.81,1210.06,3243.77Z" transform="translate(-1159.38 -3197.06)"/>
</svg>
