<svg xmlns="http://www.w3.org/2000/svg" width="65.907" height="62.18" viewBox="0 0 65.907 62.18">
  <defs>
    <style>
      .cls-1 {
        fill: #b6b6b6;
        fill-rule: evenodd;
      }
    </style>
  </defs>
  <path class="cls-1" d="M655.948,3206.74a2.277,2.277,0,0,0-2.424-2.42h-1.253c-0.568-.01-1.135-0.01-1.7-0.01-0.914,0-1.664.01-2.359,0.03a3.974,3.974,0,0,0-2.019.43,3,3,0,0,0-.879,1.11l-0.179.31-0.589-.11c-0.559-.1-1.136-0.21-1.711-0.29a3.787,3.787,0,0,0-.58-0.04,2.235,2.235,0,0,1-.793-0.1q-2.624-.975-5.238-1.98-2.753-1.05-5.512-2.09a3.01,3.01,0,0,0-1.586-.13c-2.547.61-5.132,1.26-7.632,1.87q-3.242.81-6.485,1.6l-0.112.03a1.547,1.547,0,0,0-1.46,1.12H608.5c-1.38,0-2.759.01-4.139,0.01-2.694,0-4.874-.01-6.86-0.04h-0.042a2.175,2.175,0,0,0-2.354,2.36c0.021,4.14.014,8.35,0.008,12.42l-0.006,5.85,0.449,0.26,0.081-.09c0.108-.13.228-0.25,0.348-0.38a3,3,0,0,0,.71-0.93,3.365,3.365,0,0,1,1.259-1.41c0.185-.14.376-0.29,0.56-0.45,1.809-1.59,3.514-3.36,5.164-5.06,0.343-.36.688-0.72,1.033-1.07a3.854,3.854,0,0,1,2.775-1.21,3.75,3.75,0,0,1,2.65,1.12c0.244,0.24.485,0.49,0.727,0.73,0.586,0.59,1.191,1.2,1.819,1.77a1.97,1.97,0,0,0,1.176.51c1.455,0.01,3,.02,5.007.02h2.725l1.782-.01c0.135,0,.27-0.01.422-0.02l0.224-.03,0.263-.02-0.239-.34c-0.044-.06-0.073-0.1-0.108-0.14a4.219,4.219,0,0,1,2.236-7.09c0.443-.11.889-0.21,1.336-0.31,0.642-.15,1.306-0.3,1.953-0.48a1,1,0,0,0,.692-0.69c0.044-.78.038-1.55,0.033-2.37,0-.29,0-0.58,0-0.88v-0.15H624.2c-1.614,0-3.223,0-4.833-.01-0.976,0-2.085,0-3.15-.1a1.991,1.991,0,0,1-.742-0.29,1.971,1.971,0,0,1-.207-0.11h7.2q3.661,0,7.326.01a0.962,0.962,0,0,1,.719.22,1.034,1.034,0,0,1,.215.76c0,0.49-.025.99-0.045,1.49-0.026.6-.051,1.22-0.049,1.84a0.576,0.576,0,0,1-.6.66c-0.291.07-.582,0.13-0.874,0.2a36.037,36.037,0,0,0-3.629.93,3.75,3.75,0,0,0-2.2,4.39,3.994,3.994,0,0,0,3.628,2.87,2.98,2.98,0,0,0,.424-0.03c1.387-.22,2.773-0.45,4.159-0.68,1.69-.28,3.438-0.58,5.161-0.83,2.047-.31,3.91-0.52,5.693-0.64,0.181-.01.362-0.01,0.543-0.01h0.174a3.083,3.083,0,0,0,2.038-.53v0.26c0,0.37,0,.68,0,0.99a2.158,2.158,0,0,0,2.144,2.41c1.977,0.08,4.064.08,6.734-.01a2.18,2.18,0,0,0,1.915-2.24C655.953,3215.76,655.958,3211.32,655.948,3206.74Zm-2.41-.03v12.66h-5.964v-12.66h5.964Zm-20.523,6.37c0-1.12.029-2.26,0.054-3.36l0.028-1.22a3.436,3.436,0,0,0-.868-2.52,3.393,3.393,0,0,0-2.469-.93c-0.8-.01-1.607-0.01-2.409-0.01l-2.958.01c0.2-.05.4-0.1,0.6-0.14,0.975-.23,1.983-0.47,2.948-0.78a4.693,4.693,0,0,1,3.516.24c2.683,1.09,5.555,2.18,9.04,3.43a6.963,6.963,0,0,0,2.136.32l0.216,0.02c0.445,0.02.548,0.12,0.544,0.54-0.015,2.37,0,4.77.007,7.21a0.491,0.491,0,0,1-.071.34,0.365,0.365,0,0,1-.3.05c-0.388-.03-0.794-0.05-1.208-0.05a27.7,27.7,0,0,0-4.917.59c-0.816.15-1.661,0.31-2.494,0.42-1.549.2-3.114,0.47-4.629,0.74-0.864.15-1.727,0.3-2.592,0.44a1.467,1.467,0,0,1-1.53-1.1,1.439,1.439,0,0,1,1.115-1.75c0.881-.21,1.767-0.4,2.652-0.59l0.947-.21c0.215-.05.431-0.1,0.646-0.14,0.324-.07.648-0.14,0.971-0.22A1.218,1.218,0,0,0,633.015,3213.08Zm-19.7-4.21a4.366,4.366,0,0,0,3.511,1.43q4.7-.015,9.4-0.01c-4.151.97-6.05,3.54-5.8,7.83h-2.751c-1.061,0-2.105,0-3.148-.02a1.11,1.11,0,0,1-.627-0.32c-0.346-.32-0.687-0.65-1.018-0.97-0.524-.52-1.065-1.05-1.643-1.52a5.934,5.934,0,0,0-3.761-1.35,6.084,6.084,0,0,0-4.332,1.82l-5.6,5.62v-12.96l6.909,0.01c2.584,0,5.168-.01,7.759-0.01A1.26,1.26,0,0,1,613.315,3208.87Zm14.4,46.49q0-3.51.015-7.02c0.008-2.78.015-5.57,0.018-8.35a3.14,3.14,0,0,0-.831-2.34,3.216,3.216,0,0,0-2.369-.82H593.469c-2.3,0-3.369,1.05-3.376,3.3q-0.009,3.435,0,6.86c0,4.3.007,8.75-.045,13.12a3.438,3.438,0,0,0,.888,2.56,3.522,3.522,0,0,0,2.575.93h0.044c6.742-.05,14.078-0.09,22.426-0.1l0.377-.01c2.09,0,4.215.04,6.27,0.07l1.962,0.04a3.239,3.239,0,0,0,2.368-.95,3,3,0,0,0,.8-2.23c-0.058-1.39-.053-2.8-0.049-4.17Zm-35.289-15.16a1.17,1.17,0,0,1,.187-0.82,1.186,1.186,0,0,1,.824-0.19H624.27c1.063,0,1.1.04,1.1,1.13v14.74c0,1.66,0,3.31,0,4.96a1.656,1.656,0,0,1-.157,1.02,1.786,1.786,0,0,1-1.058.16H593.839c-1.4,0-1.4,0-1.4-1.42v-0.11Q592.433,3249.95,592.425,3240.2Zm39.683-19.22v-0.6l-0.188.05c-0.237.06-.486,0.1-0.727,0.14a2.507,2.507,0,0,0-1.388.51,1.516,1.516,0,0,1-1.227.53H614.836l-0.3.46,0.1,0.09c0.147,0.12.3,0.24,0.452,0.36a7.492,7.492,0,0,1,.945.84,2.21,2.21,0,0,0,1.787.78h0.04c1.734-.02,3.458-0.02,5.064-0.02h2.583c1.254,0,2.508,0,3.781-.01a0.977,0.977,0,0,1,.71.2,0.87,0.87,0,0,1,.16.65c-0.03.65-.033,1.33-0.01,2.23a0.672,0.672,0,0,1-.145.52,0.77,0.77,0,0,1-.571.17h0c-0.538-.01-1.073,0-1.608,0h-7.028l0.193,0.25a24.961,24.961,0,0,0,2.885,3.02,1.752,1.752,0,0,0,1.05.42c0.672,0.01,1.349.01,2.025,0,0.368,0,.738-0.01,1.106-0.01,0.7,0,1.26.02,1.774,0.05h0.193a2.007,2.007,0,0,0,1.5-.55,2.465,2.465,0,0,0,.618-1.8l-0.024-7.36C632.108,3221.61,632.108,3221.33,632.108,3220.98Zm-38.576,38.24h0.35q13.185,0.015,26.371.02H620.3c0.769,0,1.539-.01,2.308-0.02,0.524-.01,1.048-0.02,1.573-0.02a1.068,1.068,0,0,0,.766-0.26,1.126,1.126,0,0,0,.249-0.83,0.847,0.847,0,0,0-1.023-.89l-22.762.02h-7.562a1.36,1.36,0,0,0-1.034.26,1.187,1.187,0,0,0-.185.91A0.773,0.773,0,0,0,593.532,3259.22Zm0.625-6.06h20.194c0.541,0,1.082,0,1.622.01h0.015a1.011,1.011,0,0,0,.784-0.29,0.628,0.628,0,0,0,.119-0.54,1.484,1.484,0,0,0-.625-0.76l-0.137-.11a0.428,0.428,0,0,0-.253-0.07,0.993,0.993,0,0,0-.17.01c-0.048,0-.1.01-0.138,0.01H610.26q-7.955,0-15.911-.01a1.066,1.066,0,0,0-1.309.92,0.79,0.79,0,0,0,.189.59A1.292,1.292,0,0,0,594.157,3253.16Zm21.831-.15h0v0Zm3.6-8.28a2.536,2.536,0,0,0,.469-0.05,2.039,2.039,0,0,1,.777.01,2.23,2.23,0,0,0,.438.04,1.769,1.769,0,0,0,1.513-.79,1.8,1.8,0,0,0,.085-2.09,1.925,1.925,0,0,0-1.972-.89,3.608,3.608,0,0,1-.936,0,2.028,2.028,0,0,0-1.735.55,1.817,1.817,0,0,0-.529,1.3A1.855,1.855,0,0,0,619.586,3244.73Zm-22.709-1.12a2.354,2.354,0,0,0,.466.01h0.385a1.435,1.435,0,0,0,.207.01,1.119,1.119,0,0,0,.258-0.02,0.792,0.792,0,0,0,.593-0.46,0.776,0.776,0,0,0-.083-0.73,1.578,1.578,0,0,0-1.2-.39,1.546,1.546,0,0,0-1.123.36,0.8,0.8,0,0,0-.07.74A0.821,0.821,0,0,0,596.877,3243.61Zm9.36-.17a7.853,7.853,0,0,0,.972.06,8.2,8.2,0,0,0,.86-0.05,0.208,0.208,0,0,0,.159-0.14,1.318,1.318,0,0,0,.012-0.96,1.139,1.139,0,0,0-.7-0.3c-0.115-.02-0.235-0.05-0.352-0.08l-0.046-.02-0.047.02a2.972,2.972,0,0,1-.293.1,2.042,2.042,0,0,0-.756.34,0.966,0.966,0,0,0-.017.76A0.313,0.313,0,0,0,606.237,3243.44Zm3.473,0.17a1.032,1.032,0,0,0,.262.03c0.069,0,.138-0.01.208-0.01s0.127-.01.215-0.01h0a1.365,1.365,0,0,0,1.216-.43,0.6,0.6,0,0,0-.028-0.62,1.118,1.118,0,0,0-.871-0.48h0a2.569,2.569,0,0,0-1.487.4,0.538,0.538,0,0,0-.165.55A0.842,0.842,0,0,0,609.71,3243.61Zm-16.01-.02a0.511,0.511,0,0,0,.264.06c0.062,0,.129-0.01.2-0.01a0.236,0.236,0,0,1,.083-0.01h0.462a0.863,0.863,0,0,0,.757-0.26,0.718,0.718,0,0,0,.135-0.6,1.325,1.325,0,0,0-.851-0.68,1.653,1.653,0,0,0-1.032.01,1.061,1.061,0,0,0-.647.75A1.11,1.11,0,0,0,593.7,3243.59Zm6.7,0.05a3.2,3.2,0,0,1,.318.07l0.043,0.01,0.042-.01a2.887,2.887,0,0,1,.3-0.07,1.2,1.2,0,0,0,.7-0.29,1.371,1.371,0,0,0,.019-0.98l-0.053-.11-0.09-.01a8.733,8.733,0,0,0-1.842-.01,0.188,0.188,0,0,0-.15.13,1.372,1.372,0,0,0,.011.98A1.141,1.141,0,0,0,600.4,3243.64Zm3.274,0c0.082,0.01.165,0.01,0.243,0.02h0.04c0.08-.01.166-0.01,0.252-0.02a1.145,1.145,0,0,0,.642-0.15,0.982,0.982,0,0,0,.3-0.9,0.741,0.741,0,0,0-.776-0.57,2.6,2.6,0,0,0-.395.04c-0.113.01-.224,0.03-0.331,0.03a1.248,1.248,0,0,0-.9.51A0.831,0.831,0,0,0,603.673,3243.64Z" transform="translate(-590.031 -3201.41)"/>
</svg>
