<svg xmlns="http://www.w3.org/2000/svg" viewBox="0 0 116.188 59.53">
  <path class="cls-1" d="M272.7,3253.46a7.859,7.859,0,0,1-2.264,5.52,6.916,6.916,0,0,1-5.014,2.13c-0.113,0-.226,0-0.341-0.01-0.556-.02-1.15-0.04-1.866-0.04-0.518,0-1.039.01-1.564,0.02s-1.063.01-1.6,0.01h-0.355l-0.1.34c-1,3.44-2.981,5.49-6.053,6.26a7.579,7.579,0,0,1-1.892.24,7.915,7.915,0,0,1-7.472-5.45,1.725,1.725,0,0,0-1.867-1.41h-0.028q-9.744.06-19.488,0.1c-7.031.04-14.3,0.07-21.453,0.12a1.906,1.906,0,0,0-1.557.94c-1.562,3.82-4.131,5.68-7.854,5.68h-0.111c-3.295-.04-6.052-2.21-7.376-5.81-0.036-.1-0.074-0.2-0.122-0.31l-0.207-.53h-0.322c-0.305,0-.614,0-0.924.01-0.693,0-1.395,0-2.1-.01a1.907,1.907,0,0,1-1.431-.48,1.975,1.975,0,0,1-.368-1.49c0.2-3.37.428-6.8,0.65-10.12l0.118-1.76q0.226-3.39.459-6.78c0.213-3.11.425-6.23,0.63-9.34q0.234-3.57.457-7.14c0.238-3.76.483-7.64,0.749-11.45a4.873,4.873,0,0,1,4.611-4.28q12.068-.015,24.135-0.02c7.806,0,15.452.01,22.726,0.02a4.905,4.905,0,0,1,4.676,4.96c0.02,1.03.015,2.06,0.01,3.15,0,0.5-.005,1.01-0.005,1.52v0.48H244.1c1.362,0,2.724.01,4.085,0.01,2.161,0,3.934-.01,5.58-0.02l0.083-.01a7.282,7.282,0,0,1,5.889,2.86c4.5,5.45,8.216,9.88,11.683,13.93a4.852,4.852,0,0,1,1.28,3.51C272.606,3244.15,272.607,3248.95,272.7,3253.46Zm-84.158,10.05a4.971,4.971,0,0,0,3.546,1.56h0.046a4.852,4.852,0,0,0,3.561-1.55,5.381,5.381,0,0,0,1.452-3.73,5.092,5.092,0,0,0-5-5.27h-0.061a5.246,5.246,0,0,0-5.074,5.21A5.325,5.325,0,0,0,188.542,3263.51Zm-6.565-5.46,0.355,0.11a2.648,2.648,0,0,0,.815.14,1.565,1.565,0,0,0,1.48-1.28,7.983,7.983,0,0,1,7.432-5.39h0.04a7.828,7.828,0,0,1,7.456,5.27,1.926,1.926,0,0,0,2.152,1.43c6.329-.01,12.6-0.02,17.358-0.02l16.047,0.01v-13.14H182.807Zm52.689-46.17a2.736,2.736,0,0,0-2.067-.64H187.53c-1.666,0-2.565.74-2.67,2.19-0.118,1.61-.216,3.25-0.31,4.84-0.061,1.01-.122,2.03-0.188,3.04q-0.195,3.015-.4,6.03c-0.153,2.3-.307,4.61-0.455,6.91-0.11,1.7-.211,3.44-0.308,5.12-0.044.75-.088,1.5-0.132,2.26l-0.03.5H235.1l0.039-.43c0.008-.09.017-0.18,0.026-0.26a4.605,4.605,0,0,0,.039-0.52l0.016-4.37c0.027-7.42.056-15.1,0.069-22.64A2.715,2.715,0,0,0,234.666,3211.88Zm16.992,53.19h0.06a5.251,5.251,0,0,0,5.088-5.14,5.43,5.43,0,0,0-1.541-3.89,4.948,4.948,0,0,0-3.55-1.52h-0.031a5.053,5.053,0,0,0-5,5.19A5.122,5.122,0,0,0,251.658,3265.07Zm18.094-26a3.687,3.687,0,0,0-.754-2.06c-2.365-2.87-4.791-5.77-7.137-8.57q-2.245-2.685-4.487-5.38a4.467,4.467,0,0,0-3.627-1.68h-0.024q-5.078.015-10.155,0.01h-5.311v23.76h31.525v-0.48c0-.53,0-1.07.009-1.6C269.8,3241.7,269.812,3240.4,269.752,3239.07Zm0.1,11.16c-0.007-.52-0.014-1.06-0.014-1.6v-0.48H238.3v10.08h0.473c0.37,0,.732,0,1.087-0.01,0.338,0,.671-0.01,1-0.01,0.5,0,.9.01,1.275,0.04a2.649,2.649,0,0,0,.277.01,1.853,1.853,0,0,0,1.891-1.43,7.848,7.848,0,0,1,12.1-3.63,8.539,8.539,0,0,1,3.127,4.69l0.1,0.34h5.335a4.573,4.573,0,0,0,4.861-4.54C269.881,3252.55,269.867,3251.42,269.851,3250.23Zm-15.085-9.96a1.561,1.561,0,0,1-1.241.55c-1.3.02-2.654,0.04-4.02,0.04-1.319,0-2.7-.02-4.093-0.04a1.378,1.378,0,0,1-1.532-1.62c-0.011-3.33-.011-6.85,0-11.07a1.522,1.522,0,0,1,1.422-1.74h0.025c0.868,0.02,1.389.68,1.4,1.79,0.008,1.9.007,3.8,0.006,5.71v4.05H253.3a1.453,1.453,0,0,1,1.663,1.1A1.411,1.411,0,0,1,254.766,3240.27Zm-78.538-20.15q-8.913.015-17.824,0c-1.1,0-1.734-.39-1.883-1.15a1.387,1.387,0,0,1,.254-1.19,1.915,1.915,0,0,1,1.515-.6c1.261-.01,2.522-0.01,3.783-0.01h2.652c0.884,0,1.768.01,2.652,0.01l5.189-.01c1.222,0,2.443,0,3.664.01,1.242,0,1.984.55,1.985,1.47C178.217,3219.97,176.826,3220.12,176.228,3220.12Zm-7.129,9.56h-3.474c-1.368,0-2.737,0-4.1-.01a1.466,1.466,0,0,1-1.661-1.4,1.314,1.314,0,0,1,.387-0.96,1.741,1.741,0,0,1,1.243-.48q5.835-.015,11.671,0a1.456,1.456,0,0,1,1.64,1.42,1.424,1.424,0,0,1-1.615,1.42C171.823,3229.69,170.461,3229.68,169.1,3229.68Zm-10.924,6.78c3.451-.01,7.1-0.01,10.851-0.01h7.442a1.96,1.96,0,0,1,1.32.41,1.286,1.286,0,0,1,.426,1.02,1.523,1.523,0,0,1-1.757,1.44q-3.327.015-6.655,0.01H158.046a1.4,1.4,0,0,1-1.5-1.06,1.26,1.26,0,0,1,.534-1.53A2.294,2.294,0,0,1,158.175,3236.46Z" transform="translate(-156.5 -3208.41)"/>
</svg>
