<svg xmlns="http://www.w3.org/2000/svg" width="1219.16" height="533.719" viewBox="0 0 1219.16 533.719">
  <defs>
    <style>
      .cls-1 {
        fill: #fff;
        fill-rule: evenodd;
      }
    </style>
  </defs>
  <path id="Shape_214_copy" data-name="Shape 214 copy" class="cls-1" d="M376.877-1068.85c514.334,0,931.283,416.948,931.283,931.281S891.211,793.715,376.877,793.715s-931.283-416.95-931.283-931.284S-137.456-1068.85,376.877-1068.85Zm0,2.25c513.092,0,929.033,415.94,929.033,929.031S889.969,791.466,376.877,791.466-552.157,375.523-552.157-137.569-136.214-1066.6,376.877-1066.6ZM908.766,573.931a40.488,40.488,0,1,1-40.488,40.488A40.488,40.488,0,0,1,908.766,573.931Zm214-200.094a49.582,49.582,0,1,1-49.59,49.581A49.582,49.582,0,0,1,1122.77,373.837ZM150.9-632.595C520.71-632.595,820.5-332.8,820.5,37.011S520.71,706.618,150.9,706.618-518.71,406.825-518.71,37.011-218.917-632.595,150.9-632.595Zm0,2C519.606-630.6,818.5-331.7,818.5,37.011S519.606,704.618,150.9,704.618-516.711,405.72-516.711,37.011-217.812-630.6,150.9-630.6ZM479.766,573.931a40.488,40.488,0,1,1-40.488,40.488A40.488,40.488,0,0,1,479.766,573.931Zm214-191a40.488,40.488,0,1,1-40.488,40.488A40.488,40.488,0,0,1,693.766,382.931Z" transform="translate(-89 -260)"/>
</svg>
